<?xml version="1.0" standalone="no"?>
<!DOCTYPE svg PUBLIC "-//W3C//DTD SVG 20010904//EN"
 "http://www.w3.org/TR/2001/REC-SVG-20010904/DTD/svg10.dtd">
<svg version="1.0" xmlns="http://www.w3.org/2000/svg"
 width="260.000000pt" height="260.000000pt" viewBox="0 0 260.000000 260.000000"
 preserveAspectRatio="xMidYMid meet">
<metadata>
Created by potrace 1.14, written by Peter Selinger 2001-2017
</metadata>
<g transform="translate(0.000000,260.000000) scale(0.100000,-0.100000)"
fill="#000000" stroke="none">
<path d="M730 2463 c-14 -9 -31 -25 -38 -35 -7 -10 -24 -18 -37 -18 -28 0 -71
-36 -80 -67 -8 -27 24 -61 64 -69 28 -6 71 -54 121 -138 l23 -38 -34 -26
c-120 -93 -220 -213 -280 -336 -21 -43 -40 -80 -42 -82 -11 -11 -167 56 -167
71 0 20 -51 65 -74 65 -35 0 -66 -40 -66 -84 0 -23 -8 -48 -20 -63 -24 -31
-26 -85 -4 -107 19 -19 60 -20 94 -2 16 10 32 11 48 5 13 -5 27 -7 32 -4 4 2
32 -4 61 -14 l54 -18 -5 -39 c-3 -21 -4 -91 -3 -154 2 -141 33 -273 92 -388
l39 -79 -28 -22 c-16 -11 -33 -21 -38 -21 -5 0 -17 -9 -27 -20 -12 -13 -25
-18 -38 -14 -10 3 -34 3 -53 -1 -69 -13 -68 -93 2 -134 20 -12 34 -28 34 -40
0 -23 54 -71 80 -71 25 0 60 46 60 79 0 17 15 43 45 75 l44 49 67 -62 c126
-115 253 -185 408 -226 54 -14 112 -25 128 -25 l31 0 -7 -67 c-5 -44 -14 -75
-25 -88 -39 -43 -45 -65 -23 -94 14 -19 31 -28 68 -33 75 -10 155 1 182 25 30
27 28 50 -8 90 -23 27 -30 46 -36 100 l-7 67 31 0 c52 0 222 49 295 86 97 49
163 94 241 165 74 68 71 68 133 0 19 -21 32 -47 33 -62 0 -34 36 -79 61 -79
27 0 79 53 79 79 0 12 4 21 9 21 5 0 23 12 40 26 63 53 27 134 -53 121 -26 -4
-39 -1 -52 14 -9 10 -22 19 -28 19 -6 0 -24 11 -41 24 l-29 23 31 59 c72 138
109 307 99 458 -3 54 -9 109 -12 121 -5 20 0 25 46 40 28 9 64 18 78 20 15 1
32 3 37 5 6 2 23 -2 38 -8 43 -18 85 -15 97 7 16 31 12 76 -10 104 -12 15 -20
40 -20 62 0 41 -36 85 -70 85 -23 0 -70 -45 -70 -66 0 -7 -10 -16 -22 -20 -13
-3 -30 -12 -38 -19 -8 -7 -36 -19 -62 -28 l-46 -15 -40 81 c-48 101 -111 185
-199 267 -58 55 -164 132 -194 142 -10 3 16 73 31 88 3 3 13 17 23 33 10 15
23 27 31 27 17 0 66 49 66 66 0 7 -12 26 -26 43 -19 23 -34 31 -59 31 -23 0
-42 8 -59 25 -30 30 -86 34 -111 8 -13 -13 -16 -26 -10 -57 11 -65 8 -95 -15
-158 -8 -21 -16 -38 -20 -38 -3 0 -48 9 -100 20 -164 34 -342 22 -498 -35 -61
-22 -67 -23 -78 -7 -11 15 -50 90 -75 143 -4 8 -5 37 -2 62 9 76 -39 110 -97
70z m135 -248 c25 -48 28 -57 15 -65 -23 -14 -24 -14 -49 38 -44 88 -47 98
-43 110 6 20 42 -18 77 -83z m805 65 c-5 -10 -10 -29 -10 -42 0 -35 -15 -51
-38 -44 -20 7 -20 9 -5 44 18 44 42 74 54 66 5 -3 5 -14 -1 -24z m66 -22 c-5
-41 -30 -98 -43 -98 -26 0 -25 29 2 74 29 50 45 59 41 24z m-965 -30 c19 -24
42 -55 52 -70 16 -26 16 -28 -3 -38 -17 -9 -23 -5 -46 32 -25 38 -54 100 -54
113 0 15 19 1 51 -37z m637 -68 c35 -5 94 -18 131 -30 l69 -21 -11 -34 c-7
-24 -14 -32 -26 -27 -13 5 -14 4 -1 -10 17 -18 34 -6 50 37 l10 26 67 -37
c189 -101 336 -280 397 -481 6 -17 3 -23 -8 -23 -9 0 -16 -6 -16 -14 0 -9 7
-12 19 -9 16 4 21 -4 32 -54 19 -92 15 -264 -10 -358 -19 -74 -81 -215 -113
-258 -13 -18 -15 -17 -41 3 -25 20 -26 24 -14 39 8 9 17 23 22 31 4 8 -4 2
-19 -15 -32 -38 -32 -49 1 -73 23 -17 25 -22 14 -36 -7 -9 -20 -16 -27 -16 -7
0 -11 -6 -8 -13 13 -34 -190 -186 -315 -237 -101 -41 -230 -67 -243 -49 -7 11
-11 11 -15 2 -2 -7 -13 -13 -24 -13 -14 0 -19 7 -19 25 0 14 -4 25 -10 25 -5
0 -10 -11 -10 -25 0 -20 -5 -25 -24 -25 -13 0 -27 6 -29 13 -4 9 -8 9 -15 -2
-9 -12 -22 -12 -96 3 -151 32 -289 104 -407 214 -36 33 -56 59 -52 68 3 8 -1
14 -10 14 -8 0 -20 6 -26 14 -9 11 -5 19 21 39 40 32 30 47 -11 17 -34 -23
-51 -20 -51 11 0 10 -5 19 -11 19 -14 0 -74 132 -94 210 -23 88 -34 240 -24
325 12 96 17 107 40 100 23 -8 25 10 2 23 -15 9 -14 15 7 71 26 70 91 179 147
246 50 62 180 165 215 172 15 3 28 9 28 14 0 11 62 42 128 64 123 40 260 53
380 35z m901 -506 c-6 -8 -17 -14 -25 -14 -7 0 -19 -6 -26 -13 -7 -7 -27 -18
-45 -24 -29 -10 -33 -9 -38 8 -4 11 -5 22 -3 23 10 9 97 33 121 34 24 1 26 -2
16 -14z m-1936 -10 c49 -17 52 -20 38 -43 -9 -15 -45 -8 -71 14 -8 7 -25 16
-37 19 -13 4 -23 12 -23 17 0 14 41 11 93 -7z m-62 -58 c65 -8 89 -18 89 -35
0 -28 -9 -30 -58 -14 -58 20 -94 42 -86 54 3 5 9 7 13 4 5 -2 23 -6 42 -9z
m2029 6 c0 -11 -32 -27 -89 -47 -56 -19 -61 -19 -61 4 0 25 10 31 68 41 66 11
82 11 82 2z m-1800 -803 c0 -4 -10 -11 -22 -15 -13 -3 -31 -13 -40 -21 -36
-32 -37 -6 -2 36 35 40 39 42 51 25 7 -10 13 -21 13 -25z m1594 -11 c14 -18
23 -34 21 -37 -3 -2 -22 4 -42 15 -60 30 -64 34 -52 55 12 24 36 13 73 -33z
m-1558 -47 c-4 -6 -25 -20 -47 -31 -48 -25 -51 -10 -7 36 28 28 35 31 47 20 7
-8 10 -19 7 -25z m1499 4 c43 -42 46 -59 8 -43 -47 20 -74 49 -62 65 15 18 15
18 54 -22z m-789 -367 c-4 -18 -9 -48 -13 -65 -8 -47 -19 -41 -27 13 -10 78
-9 84 20 84 24 0 26 -2 20 -32z m60 -30 c-11 -95 -20 -95 -31 0 -7 60 -6 62
15 62 22 0 22 -2 16 -62z"/>
<path d="M1214 2076 c-3 -8 -4 -23 -1 -33 3 -12 5 -9 6 9 0 14 7 29 14 31 9 4
9 6 -1 6 -7 1 -15 -5 -18 -13z"/>
<path d="M1281 2071 c17 -26 5 -49 -28 -54 l-28 -4 26 -2 c15 0 32 6 39 14 13
16 6 65 -10 65 -6 0 -5 -8 1 -19z"/>
<path d="M1317 2083 c-4 -3 -7 -19 -7 -34 0 -22 6 -30 26 -35 30 -8 71 12 80
38 6 21 44 24 62 6 9 -9 12 -9 12 0 0 17 -50 27 -71 14 -13 -9 -18 -8 -23 3
-3 8 -11 15 -18 15 -10 0 -10 -2 0 -9 8 -4 12 -19 10 -32 -2 -19 -9 -24 -33
-24 -27 0 -30 3 -30 33 0 17 0 32 -1 32 0 0 -4 -3 -7 -7z"/>
<path d="M1121 2066 c-14 -17 -7 -66 9 -66 6 0 5 8 -1 19 -18 28 -4 53 28 49
34 -4 43 -35 17 -56 -11 -8 -13 -12 -5 -10 8 2 19 12 25 21 24 38 -45 77 -73
43z"/>
<path d="M1068 2050 c12 -5 22 -15 22 -21 0 -7 3 -9 6 -6 10 10 -16 37 -35 36
-11 0 -9 -3 7 -9z"/>
<path d="M1504 2025 c-6 -26 9 -55 30 -55 6 0 3 5 -6 11 -21 12 -23 40 -6 57
9 9 9 12 0 12 -6 0 -14 -11 -18 -25z"/>
<path d="M1476 2013 c-6 -14 -5 -15 5 -6 7 7 10 15 7 18 -3 3 -9 -2 -12 -12z"/>
<path d="M937 2002 c-10 -10 -17 -24 -17 -31 0 -8 -7 -10 -20 -6 -29 9 -60
-12 -60 -40 0 -14 -5 -25 -10 -25 -6 0 -5 -8 2 -20 10 -16 10 -24 -1 -42 -13
-21 -13 -22 3 -9 13 11 16 23 12 45 -5 24 -4 28 6 18 31 -31 84 3 74 47 -6 24
-5 24 7 9 27 -34 77 -16 77 27 0 43 -44 59 -73 27z m58 -27 c0 -25 -4 -30 -24
-30 -32 0 -49 28 -31 50 7 9 23 15 34 13 16 -2 21 -10 21 -33z m-84 -31 c17
-21 0 -49 -32 -49 -18 0 -25 6 -27 24 -6 38 34 55 59 25z"/>
<path d="M1417 2009 c7 -7 15 -10 18 -7 3 3 -2 9 -12 12 -14 6 -15 5 -6 -5z"/>
<path d="M1600 2003 c-8 -4 -21 -13 -30 -21 -13 -13 -13 -15 0 -10 8 2 19 -4
25 -15 5 -11 17 -22 25 -24 10 -3 9 -1 -2 7 -21 13 -23 41 -6 58 13 13 11 14
-12 5z"/>
<path d="M1657 1999 c7 -7 15 -10 18 -7 3 3 -2 9 -12 12 -14 6 -15 5 -6 -5z"/>
<path d="M1022 1988 c7 -20 53 -21 69 -2 13 16 12 16 -8 3 -19 -11 -27 -12
-44 -1 -18 11 -20 11 -17 0z"/>
<path d="M1673 1955 c-6 -14 -7 -25 -2 -25 5 0 9 -6 9 -13 0 -18 32 -47 51
-47 8 0 3 6 -11 13 -17 8 -25 21 -25 37 0 21 5 25 30 25 29 0 30 -1 30 -51 0
-54 16 -84 44 -84 19 0 41 19 41 35 0 5 -5 2 -11 -7 -22 -38 -79 -5 -63 36 8
21 51 20 63 -1 6 -10 11 -13 11 -7 0 17 -23 34 -47 34 -15 0 -23 6 -23 18 0
26 -20 42 -51 42 -15 0 -29 4 -31 10 -1 5 -8 -2 -15 -15z"/>
<path d="M1224 1939 c-9 -16 20 -41 39 -33 27 10 21 44 -7 44 -14 0 -28 -5
-32 -11z"/>
<path d="M1303 1935 c-7 -19 13 -36 37 -32 8 1 15 11 15 22 0 26 -42 34 -52
10z"/>
<path d="M1151 1926 c-9 -10 -8 -16 4 -26 20 -16 45 -6 45 20 0 23 -31 28 -49
6z"/>
<path d="M1382 1918 c2 -15 10 -23 23 -23 30 0 27 39 -3 43 -20 3 -23 0 -20
-20z"/>
<path d="M1454 1905 c-8 -20 4 -35 27 -35 24 0 37 29 18 41 -21 13 -39 11 -45
-6z"/>
<path d="M1082 1897 c-15 -17 1 -40 24 -35 27 5 32 48 6 48 -11 0 -24 -6 -30
-13z"/>
<path d="M772 1888 c-7 -7 -12 -22 -12 -35 0 -18 -6 -23 -25 -23 -28 0 -50
-32 -42 -61 4 -13 0 -19 -13 -19 -10 0 -24 -8 -31 -17 -11 -15 -11 -16 1 -5 8
6 24 12 36 12 12 0 25 -6 27 -12 4 -10 6 -10 6 0 1 6 7 12 14 12 8 0 22 9 32
20 14 15 16 29 10 65 -4 31 -2 51 6 61 14 17 8 19 -9 2z m-5 -84 c13 -33 -35
-70 -59 -46 -6 6 -8 22 -4 36 5 19 13 26 32 26 14 0 27 -7 31 -16z"/>
<path d="M1530 1874 c-10 -11 -10 -17 0 -29 23 -28 57 -14 44 18 -8 22 -31 28
-44 11z"/>
<path d="M1025 1854 c-15 -15 -15 -18 -1 -33 15 -14 17 -14 32 1 17 16 13 48
-5 48 -5 0 -17 -7 -26 -16z"/>
<path d="M1162 1848 c-7 -7 -12 -19 -12 -28 0 -13 11 -16 55 -16 36 0 55 4 55
12 0 18 -28 37 -45 31 -8 -4 -17 -2 -20 3 -8 13 -19 12 -33 -2z"/>
<path d="M1582 1808 c3 -25 34 -36 51 -19 14 14 -9 41 -35 41 -14 0 -19 -6
-16 -22z"/>
<path d="M1835 1810 c-15 -16 -16 -24 -7 -42 11 -22 11 -22 6 3 -6 29 17 55
41 45 9 -3 13 -2 10 4 -10 16 -30 12 -50 -10z"/>
<path d="M980 1795 c-16 -19 -5 -47 17 -43 11 2 18 12 18 27 0 29 -17 37 -35
16z"/>
<path d="M1334 1799 c-3 -6 -1 -16 5 -22 6 -6 11 -19 11 -29 0 -12 8 -18 25
-18 13 0 28 -8 34 -17 7 -14 0 -24 -35 -51 -59 -46 -60 -78 -4 -123 22 -18 40
-40 40 -49 0 -9 -18 -33 -40 -53 -28 -24 -40 -44 -40 -62 0 -18 12 -38 40 -62
22 -20 40 -44 40 -53 0 -9 -18 -31 -40 -49 -30 -24 -40 -39 -40 -61 0 -21 10
-36 40 -60 22 -17 40 -40 40 -51 0 -10 5 -19 10 -19 6 0 10 11 10 25 0 16 -13
34 -40 56 -22 18 -40 39 -40 48 0 9 18 32 40 52 58 53 54 90 -16 136 -14 9
-24 25 -24 38 0 13 10 29 24 38 70 47 75 88 16 136 -22 17 -40 39 -40 49 0 9
18 32 40 52 54 47 64 97 27 134 -27 27 -71 35 -83 15z"/>
<path d="M1901 1783 c0 -12 -9 -27 -18 -32 -10 -6 -13 -11 -7 -11 7 0 9 -11 6
-25 -5 -26 12 -55 32 -55 6 0 3 5 -6 11 -25 14 -23 54 5 68 22 11 22 11 -3 5
-22 -6 -23 -5 -12 9 8 9 12 24 9 34 -4 14 -5 14 -6 -4z"/>
<path d="M1625 1760 c-7 -11 12 -50 24 -50 5 0 14 7 21 15 10 12 10 18 0 30
-14 17 -36 20 -45 5z"/>
<path d="M939 1719 c-13 -25 1 -45 26 -36 22 9 31 37 14 48 -21 13 -27 11 -40
-12z"/>
<path d="M1948 1730 c17 -20 15 -47 -5 -59 -12 -7 -14 -10 -4 -11 11 0 11 -3
1 -14 -10 -13 -8 -13 14 -3 20 10 22 13 9 18 -12 4 -13 8 -5 13 18 11 15 42
-5 57 -15 11 -16 11 -5 -1z"/>
<path d="M630 1704 c0 -6 7 -17 15 -24 8 -7 13 -16 10 -20 -3 -5 0 -12 6 -16
8 -4 9 -3 5 4 -4 8 0 12 11 13 15 0 14 2 -4 9 -12 5 -26 17 -32 27 -6 10 -11
13 -11 7z"/>
<path d="M706 1683 c-6 -14 -5 -15 5 -6 7 7 10 15 7 18 -3 3 -9 -2 -12 -12z"/>
<path d="M1655 1690 c-11 -17 5 -51 23 -48 23 4 23 52 0 56 -9 2 -19 -2 -23
-8z"/>
<path d="M1208 1654 c-49 -46 -49 -74 -3 -110 62 -47 63 -60 11 -107 -28 -24
-46 -49 -46 -62 0 -13 18 -38 46 -62 52 -47 51 -60 -11 -107 -55 -43 -50 -68
31 -136 l29 -24 -33 -7 c-60 -12 -90 -64 -63 -108 7 -11 11 -9 20 8 7 13 21
21 36 21 17 0 25 6 25 17 0 9 7 24 16 34 23 26 11 62 -31 90 -54 37 -54 55 -1
104 25 23 46 50 46 60 0 10 -20 36 -45 58 -25 22 -45 46 -45 52 0 6 20 30 45
52 25 22 45 48 45 58 0 10 -20 37 -45 59 -25 23 -45 47 -45 53 0 6 15 24 33
40 41 36 52 53 35 53 -7 0 -30 -16 -50 -36z"/>
<path d="M600 1645 c-19 -22 -8 -25 13 -3 9 10 13 18 8 18 -5 0 -14 -7 -21
-15z"/>
<path d="M916 1644 c-4 -10 -1 -24 7 -31 12 -12 17 -12 31 2 9 10 15 22 13 29
-6 19 -44 19 -51 0z"/>
<path d="M1997 1629 c4 -13 8 -18 11 -10 2 7 -1 18 -6 23 -8 8 -9 4 -5 -13z"/>
<path d="M662 1605 c-13 -29 -46 -33 -62 -7 -10 15 -10 14 -5 -4 4 -16 0 -23
-15 -27 -11 -3 -20 -10 -20 -16 0 -8 5 -8 19 0 26 17 51 4 51 -26 0 -31 -25
-43 -54 -25 -19 12 -20 12 -7 -3 31 -38 78 -8 67 43 -3 17 -1 30 4 30 11 0 45
49 38 55 -3 3 -10 -6 -16 -20z"/>
<path d="M1663 1604 c-7 -19 20 -49 36 -40 6 4 11 18 11 32 0 17 -5 24 -20 24
-11 0 -23 -7 -27 -16z"/>
<path d="M1930 1605 c-1 -33 50 -46 71 -17 11 14 11 15 -1 5 -20 -18 -47 -16
-59 5 -6 9 -11 12 -11 7z"/>
<path d="M912 1573 c-12 -24 -4 -43 18 -43 22 0 34 28 19 46 -15 19 -26 18
-37 -3z"/>
<path d="M1970 1545 c-16 -19 -5 -61 17 -69 16 -6 16 -6 0 12 -20 22 -22 43
-5 60 7 7 9 12 6 12 -3 0 -11 -7 -18 -15z"/>
<path d="M2022 1546 c7 -8 15 -12 17 -11 5 6 -10 25 -20 25 -5 0 -4 -6 3 -14z"/>
<path d="M1666 1523 c-5 -11 0 -22 11 -31 15 -11 20 -10 30 4 6 9 9 22 6 30
-7 20 -40 17 -47 -3z"/>
<path d="M2031 1497 c-13 -21 -12 -21 5 -5 10 10 16 20 13 22 -3 3 -11 -5 -18
-17z"/>
<path d="M907 1495 c-9 -23 3 -45 25 -45 15 0 19 6 16 27 -3 31 -32 43 -41 18z"/>
<path d="M545 1459 c-11 -16 -1 -19 13 -3 7 8 8 14 3 14 -5 0 -13 -5 -16 -11z"/>
<path d="M1673 1463 c-7 -2 -13 -16 -13 -29 0 -30 36 -34 45 -4 10 32 -3 45
-32 33z"/>
<path d="M2028 1460 c12 -5 22 -15 22 -21 0 -7 3 -9 6 -6 10 10 -16 37 -35 36
-11 0 -9 -3 7 -9z"/>
<path d="M1984 1445 c-4 -8 -3 -26 0 -40 5 -20 13 -25 36 -25 16 0 31 3 33 8
3 4 -9 7 -26 7 -29 0 -32 3 -32 33 0 35 -3 40 -11 17z"/>
<path d="M609 1422 c-3 -20 -2 -29 4 -23 5 5 7 19 5 32 -3 20 -5 19 -9 -9z"/>
<path d="M914 1415 c-9 -22 22 -53 37 -38 15 15 7 47 -14 51 -9 2 -20 -4 -23
-13z"/>
<path d="M1645 1370 c-7 -24 1 -40 20 -40 17 0 34 30 28 48 -7 19 -41 14 -48
-8z"/>
<path d="M537 1363 c-15 -14 -6 -63 12 -75 18 -11 18 -13 3 -26 -12 -9 -12
-11 -2 -6 23 11 60 46 60 58 0 5 -6 2 -13 -8 -7 -10 -22 -16 -33 -14 -15 3
-19 12 -19 41 0 20 0 37 -1 37 0 0 -4 -3 -7 -7z"/>
<path d="M597 1349 c4 -13 8 -18 11 -10 2 7 -1 18 -6 23 -8 8 -9 4 -5 -13z"/>
<path d="M2002 1358 c-7 -7 -12 -16 -12 -22 0 -5 6 -2 13 8 14 20 48 19 55 -1
2 -7 -5 -13 -15 -14 -14 0 -15 -2 -3 -6 8 -3 18 -11 22 -17 4 -6 8 0 8 15 0
28 -16 49 -40 49 -9 0 -21 -5 -28 -12z"/>
<path d="M931 1346 c-15 -18 -3 -46 19 -46 23 0 32 13 24 33 -8 22 -31 28 -43
13z"/>
<path d="M1486 1331 c-28 -31 -19 -39 39 -38 50 1 56 3 53 22 -2 14 -11 20
-28 21 -14 0 -30 3 -36 7 -6 3 -19 -2 -28 -12z"/>
<path d="M1627 1291 c-7 -30 17 -46 37 -25 21 20 16 38 -11 42 -14 2 -22 -4
-26 -17z"/>
<path d="M1990 1300 c0 -6 7 -13 15 -17 13 -5 13 -8 -5 -20 -23 -16 -26 -55
-6 -73 19 -15 58 -9 63 10 4 12 3 12 -5 2 -5 -8 -20 -12 -33 -10 -18 2 -25 10
-27 31 -4 32 21 46 49 28 12 -7 19 -7 19 -1 0 5 -3 10 -8 10 -4 0 -20 11 -35
25 -15 14 -27 21 -27 15z"/>
<path d="M945 1270 c-9 -15 4 -50 20 -50 19 0 27 17 20 40 -7 21 -30 27 -40
10z"/>
<path d="M609 1225 c-3 -22 -10 -31 -27 -33 -12 -2 -20 -7 -17 -12 3 -5 0 -18
-6 -29 -10 -15 -9 -24 4 -45 10 -14 22 -26 27 -26 5 0 8 -6 6 -12 -1 -7 -1
-10 1 -5 8 14 52 7 63 -10 8 -12 10 -13 7 -3 -2 8 -14 20 -26 26 -14 7 -19 14
-12 18 18 11 13 55 -9 73 -14 12 -16 20 -9 29 6 7 9 23 7 36 -4 20 -5 19 -9
-7z m11 -69 c18 -23 8 -61 -17 -64 -30 -4 -53 39 -33 63 16 19 34 19 50 1z"/>
<path d="M1610 1220 c-12 -23 -6 -40 15 -40 17 0 38 36 30 50 -10 17 -34 11
-45 -10z"/>
<path d="M960 1182 c0 -25 22 -43 39 -33 20 13 9 46 -17 49 -16 3 -22 -2 -22
-16z"/>
<path d="M1591 1157 c-6 -6 -11 -19 -11 -30 0 -27 44 -19 48 9 3 25 -20 38
-37 21z"/>
<path d="M1972 1158 c-19 -19 -14 -56 9 -68 11 -7 23 -9 26 -7 2 3 -5 8 -17
12 -31 10 -24 57 10 66 21 6 22 7 5 8 -12 1 -26 -4 -33 -11z"/>
<path d="M984 1115 c-8 -21 3 -45 20 -45 20 0 29 16 21 40 -7 23 -33 27 -41 5z"/>
<path d="M2026 1103 c-6 -14 -5 -15 5 -6 7 7 10 15 7 18 -3 3 -9 -2 -12 -12z"/>
<path d="M1557 1083 c-4 -3 -7 -15 -7 -25 0 -14 6 -19 23 -16 29 4 38 48 9 48
-10 0 -22 -3 -25 -7z"/>
<path d="M1995 1037 c0 -27 -4 -32 -28 -35 -21 -3 -29 2 -36 20 -6 14 -10 17
-10 8 -1 -9 4 -21 11 -28 9 -9 8 -12 -8 -12 -22 0 -44 -18 -44 -34 0 -6 5 -3
11 7 12 20 39 22 59 5 12 -11 12 -10 1 5 -12 15 -11 17 11 17 13 0 29 5 36 12
13 13 16 54 4 61 -4 3 -7 -9 -7 -26z"/>
<path d="M1012 1047 c-16 -19 -5 -47 18 -47 28 0 32 15 12 40 -15 19 -19 20
-30 7z"/>
<path d="M590 1024 c0 -17 27 -37 42 -31 8 4 7 6 -4 6 -9 1 -22 9 -27 19 -6 9
-11 12 -11 6z"/>
<path d="M656 1013 c-6 -14 -5 -15 5 -6 7 7 10 15 7 18 -3 3 -9 -2 -12 -12z"/>
<path d="M1520 1005 c-11 -13 -11 -19 2 -31 14 -14 17 -14 32 1 9 10 15 22 13
29 -6 18 -33 18 -47 1z"/>
<path d="M642 978 c-7 -7 -12 -19 -12 -28 0 -18 30 -50 46 -50 4 0 -2 7 -14
16 -26 18 -29 49 -4 63 9 6 12 11 7 11 -6 0 -16 -5 -23 -12z"/>
<path d="M680 986 c0 -2 7 -7 16 -10 8 -3 12 -2 9 4 -6 10 -25 14 -25 6z"/>
<path d="M1033 964 c-9 -23 25 -48 43 -33 10 8 11 16 3 30 -12 23 -37 25 -46
3z"/>
<path d="M702 932 c-11 -25 -11 -25 4 -10 9 9 15 21 13 27 -2 6 -10 -2 -17
-17z"/>
<path d="M1479 939 c-13 -25 1 -45 26 -36 22 9 31 37 14 48 -21 13 -27 11 -40
-12z"/>
<path d="M1880 920 c0 -5 -6 -10 -14 -10 -8 0 -18 -4 -21 -10 -3 -6 1 -7 10
-4 18 7 45 -12 45 -32 0 -7 -7 -20 -16 -28 -8 -9 -11 -16 -5 -16 27 0 38 76
14 99 -8 7 -13 8 -13 1z"/>
<path d="M702 898 c-14 -14 -15 -38 -2 -58 7 -11 8 -6 4 17 -5 26 -3 34 11 39
45 18 68 -41 25 -63 -16 -8 -19 -13 -9 -13 17 0 49 30 49 47 0 14 -34 43 -51
43 -8 0 -20 -5 -27 -12z"/>
<path d="M1065 899 c-4 -5 1 -19 11 -30 15 -16 20 -17 31 -6 8 7 11 21 7 30
-7 19 -39 23 -49 6z"/>
<path d="M1437 883 c-14 -14 -7 -43 11 -43 24 0 42 19 35 36 -5 15 -35 19 -46
7z"/>
<path d="M1114 835 c-9 -24 22 -53 38 -37 9 9 10 17 2 29 -15 24 -33 27 -40 8z"/>
<path d="M1817 837 c-2 -7 1 -20 7 -29 8 -14 7 -24 -3 -40 -13 -21 -13 -22 1
-10 20 16 27 65 12 80 -10 9 -14 8 -17 -1z"/>
<path d="M769 823 c-13 -15 -12 -15 9 -2 19 12 25 12 45 0 20 -13 21 -13 8 2
-7 10 -21 17 -31 17 -10 0 -24 -7 -31 -17z"/>
<path d="M1391 827 c-13 -13 -14 -34 -2 -41 16 -10 41 5 41 24 0 22 -24 32
-39 17z"/>
<path d="M1762 818 c-7 -7 -12 -20 -12 -30 0 -12 -8 -18 -24 -18 -26 0 -56
-23 -56 -44 0 -8 -10 -11 -28 -8 -19 2 -33 -2 -43 -15 -13 -16 -12 -17 3 -5
23 18 62 11 66 -11 8 -41 -45 -63 -70 -29 -19 25 -70 27 -92 3 -10 -11 -25
-17 -34 -14 -13 4 -14 3 -4 -5 8 -5 12 -20 10 -33 -2 -19 -9 -24 -33 -24 -36
0 -47 31 -19 53 11 8 13 12 5 10 -8 -2 -19 -12 -25 -21 -26 -41 48 -78 76 -38
10 14 18 17 28 10 8 -5 22 -8 30 -8 8 0 5 4 -8 9 -46 19 -35 70 15 70 29 0 41
-26 23 -54 -12 -19 -12 -20 3 -7 10 7 17 20 17 27 0 12 4 12 20 2 23 -15 48
-4 65 28 6 11 18 18 30 16 37 -5 57 20 57 73 0 28 4 56 10 62 13 16 6 17 -10
1z m-15 -74 c9 -24 -10 -49 -38 -49 -27 0 -37 28 -19 50 17 20 49 19 57 -1z"/>
<path d="M750 794 c0 -18 35 -44 58 -44 15 0 22 -6 22 -19 0 -20 27 -48 37
-37 3 3 1 6 -5 6 -17 0 -25 39 -11 56 10 13 7 14 -28 8 -35 -5 -43 -3 -57 17
-9 13 -16 19 -16 13z"/>
<path d="M1169 784 c-10 -12 -9 -18 4 -31 18 -18 47 -11 47 11 0 25 -35 39
-51 20z"/>
<path d="M1321 781 c-21 -14 -5 -43 21 -39 15 2 23 10 23 23 0 22 -22 30 -44
16z"/>
<path d="M898 760 c17 -20 15 -47 -5 -59 -10 -6 -13 -11 -7 -11 5 0 15 5 22
12 9 9 12 9 12 -2 0 -10 3 -11 8 -4 4 7 16 14 27 17 11 2 8 4 -7 2 -21 -1 -28
3 -28 16 0 9 -8 23 -17 30 -15 11 -16 11 -5 -1z"/>
<path d="M1244 755 c-4 -9 -2 -21 4 -27 15 -15 44 -1 40 19 -4 23 -36 29 -44
8z"/>
<path d="M995 675 c0 -18 3 -31 7 -29 4 2 8 -6 10 -18 2 -12 9 -23 16 -24 7
-1 8 0 2 3 -5 2 -10 18 -10 34 0 28 2 30 33 27 28 -3 32 -6 32 -34 0 -36 17
-40 32 -7 7 13 7 20 1 17 -5 -3 -17 4 -25 16 -12 17 -23 21 -49 18 -23 -3 -34
0 -34 8 0 7 -3 15 -7 17 -5 3 -8 -10 -8 -28z"/>
<path d="M920 661 c0 -14 38 -34 53 -27 7 2 5 5 -5 5 -9 1 -24 8 -32 17 -9 8
-16 11 -16 5z"/>
<path d="M1160 646 c0 -2 7 -7 16 -10 8 -3 12 -2 9 4 -6 10 -25 14 -25 6z"/>
<path d="M1217 632 c-3 -4 9 -7 26 -7 26 0 33 -4 35 -24 2 -13 -2 -28 -10 -33
-10 -8 -10 -9 2 -5 19 5 25 44 10 63 -13 15 -55 19 -63 6z"/>
<path d="M1317 632 c-3 -4 9 -7 26 -7 26 0 33 -4 35 -24 2 -13 -2 -28 -10 -33
-10 -8 -10 -9 2 -5 19 5 25 44 10 63 -13 15 -55 19 -63 6z"/>
<path d="M1190 611 c0 -5 9 -19 20 -32 l20 -24 -16 33 c-15 32 -24 40 -24 23z"/>
<path d="M1117 578 c2 -5 17 -8 33 -8 16 0 31 3 33 8 3 4 -12 7 -33 7 -21 0
-36 -3 -33 -7z"/>
</g>
</svg>
